{
    "asset" : {
        "generator" : "Khronos glTF Blender I/O v3.4.50",
        "version" : "2.0"
    },
    "scene" : 0,
    "scenes" : [
        {
            "name" : "Scene",
            "nodes" : [
                0
            ]
        }
    ],
    "nodes" : [
        {
            "mesh" : 0,
            "name" : "Supercode_LOGO_Mid_04",
            "rotation" : [
                0.70710688829422,
                0,
                0,
                0.7071066498756409
            ]
        }
    ],
    "meshes" : [
        {
            "name" : "Supercode_LOGO_Mid_04",
            "primitives" : [
                {
                    "attributes" : {
                        "POSITION" : 0
                    },
                    "indices" : 1
                }
            ]
        }
    ],
    "accessors" : [
        {
            "bufferView" : 0,
            "componentType" : 5126,
            "count" : 717,
            "max" : [
                0.5656390190124512,
                0.4973590075969696,
                0.0029810001142323017
            ],
            "min" : [
                -0.5640270113945007,
                -0.4981040060520172,
                -0.04556199908256531
            ],
            "type" : "VEC3"
        },
        {
            "bufferView" : 1,
            "componentType" : 5123,
            "count" : 4266,
            "type" : "SCALAR"
        }
    ],
    "bufferViews" : [
        {
            "buffer" : 0,
            "byteLength" : 8604,
            "byteOffset" : 0,
            "target" : 34962
        },
        {
            "buffer" : 0,
            "byteLength" : 8532,
            "byteOffset" : 8604,
            "target" : 34963
        }
    ],
    "buffers" : [
        {
            "byteLength" : 17136,
            "uri" : "data:application/octet-stream;base64,"
        }
    ]
}
