{
  "accessors": [
    {
      "bufferView": 0,
      "componentType": 5125,
      "count": 45270,
      "type": "SCALAR"
    },
    {
      "bufferView": 1,
      "componentType": 5126,
      "count": 8719,
      "max": [
        0.07476387772311527,
        -0.0007694995060595067,
        0.01979184735693162
      ],
      "min": [
        -0.036970356333766594,
        -0.06565692640533838,
        -0.019791847356931628
      ],
      "type": "VEC3"
    },
    {
      "bufferView": 2,
      "componentType": 5126,
      "count": 8719,
      "max": [
        0.9994495575213901,
        0.9994453451881669,
        0.9999651745480804
      ],
      "min": [
        -0.9995342936054546,
        -0.9999999999967569,
        -0.9999651745480804
      ],
      "type": "VEC3"
    },
    {
      "bufferView": 3,
      "componentType": 5126,
      "count": 8719,
      "max": [
        0.8256896367214308,
        1.0
      ],
      "min": [
        0.0,
        0.0
      ],
      "type": "VEC2"
    },
    {
      "bufferView": 4,
      "componentType": 5125,
      "count": 46350,
      "type": "SCALAR"
    },
    {
      "bufferView": 5,
      "componentType": 5126,
      "count": 8899,
      "max": [
        0.07476389809238998,
        0.06565692640533838,
        0.019787350826474804
      ],
      "min": [
        -0.03697034588685142,
        0.0007696880266359063,
        -0.01978735082647481
      ],
      "type": "VEC3"
    },
    {
      "bufferView": 6,
      "componentType": 5126,
      "count": 8899,
      "max": [
        0.9994489006082553,
        0.9999999999999954,
        0.9999429208978068
      ],
      "min": [
        -0.9995338072176446,
        -0.9994482038529229,
        -0.9999429208978068
      ],
      "type": "VEC3"
    },
    {
      "bufferView": 7,
      "componentType": 5126,
      "count": 8899,
      "max": [
        0.8256896160606715,
        1.0
      ],
      "min": [
        0.0,
        0.0
      ],
      "type": "VEC2"
    },
    {
      "bufferView": 8,
      "componentType": 5125,
      "count": 46290,
      "type": "SCALAR"
    },
    {
      "bufferView": 9,
      "componentType": 5126,
      "count": 8889,
      "max": [
        -0.03818783036991243,
        0.06443991981634928,
        0.01979540518872906
      ],
      "min": [
        -0.07476389809238998,
        -0.06443993455607278,
        -0.019795405188729062
      ],
      "type": "VEC3"
    },
    {
      "bufferView": 10,
      "componentType": 5126,
      "count": 8889,
      "max": [
        0.9999999999982936,
        0.9995345696581744,
        0.9999844142266114
      ],
      "min": [
        -0.9999999999999484,
        -0.9995343106170277,
        -0.9999844142266114
      ],
      "type": "VEC3"
    },
    {
      "bufferView": 11,
      "componentType": 5126,
      "count": 8889,
      "max": [
        1.0,
        0.7622477701169137
      ],
      "min": [
        0.0,
        0.0
      ],
      "type": "VEC2"
    }
  ],
  "asset": {
    "generator": "Adobe Illustrator",
    "version": "2.0"
  },
  "bufferViews": [
    {
      "buffer": 0,
      "byteLength": 181080,
      "target": 34963
    },
    {
      "buffer": 0,
      "byteLength": 104628,
      "byteOffset": 181080,
      "target": 34962
    },
    {
      "buffer": 0,
      "byteLength": 104628,
      "byteOffset": 285708,
      "target": 34962
    },
    {
      "buffer": 0,
      "byteLength": 69752,
      "byteOffset": 390336,
      "target": 34962
    },
    {
      "buffer": 0,
      "byteLength": 185400,
      "byteOffset": 460088,
      "target": 34963
    },
    {
      "buffer": 0,
      "byteLength": 106788,
      "byteOffset": 645488,
      "target": 34962
    },
    {
      "buffer": 0,
      "byteLength": 106788,
      "byteOffset": 752276,
      "target": 34962
    },
    {
      "buffer": 0,
      "byteLength": 71192,
      "byteOffset": 859064,
      "target": 34962
    },
    {
      "buffer": 0,
      "byteLength": 185160,
      "byteOffset": 930256,
      "target": 34963
    },
    {
      "buffer": 0,
      "byteLength": 106668,
      "byteOffset": 1115416,
      "target": 34962
    },
    {
      "buffer": 0,
      "byteLength": 106668,
      "byteOffset": 1222084,
      "target": 34962
    },
    {
      "buffer": 0,
      "byteLength": 71112,
      "byteOffset": 1328752,
      "target": 34962
    }
  ],
  "buffers": [
    {
      "byteLength": 1399864,
      "uri": "data:application/octet-stream;base64,"
    }
  ],
  "images": [
    {
      "name": "BaseColor",
      "uri": "data:image/png;base64,"
    },
    {
      "name": "BaseColor",
      "uri": "data:image/png;base64,"
    },
    {
      "name": "BaseColor",
      "uri": "data:image/png;base64,"
    }
  ],
  "materials": [
    {
      "doubleSided": true,
      "pbrMetallicRoughness": {
        "baseColorTexture": {
          "index": 0
        },
        "metallicFactor": 0.0,
        "roughnessFactor": 0.30000001192092896
      }
    },
    {
      "doubleSided": true,
      "pbrMetallicRoughness": {
        "baseColorTexture": {
          "index": 1
        },
        "metallicFactor": 0.0,
        "roughnessFactor": 0.30000001192092896
      }
    },
    {
      "doubleSided": true,
      "pbrMetallicRoughness": {
        "baseColorTexture": {
          "index": 2
        },
        "metallicFactor": 0.0,
        "roughnessFactor": 0.30000001192092896
      }
    }
  ],
  "meshes": [
    {
      "primitives": [
        {
          "attributes": {
            "NORMAL": 2,
            "POSITION": 1,
            "TEXCOORD_0": 3
          },
          "indices": 0,
          "material": 0,
          "mode": 4
        }
      ]
    },
    {
      "primitives": [
        {
          "attributes": {
            "NORMAL": 6,
            "POSITION": 5,
            "TEXCOORD_0": 7
          },
          "indices": 4,
          "material": 1,
          "mode": 4
        }
      ]
    },
    {
      "primitives": [
        {
          "attributes": {
            "NORMAL": 10,
            "POSITION": 9,
            "TEXCOORD_0": 11
          },
          "indices": 8,
          "material": 2,
          "mode": 4
        }
      ]
    }
  ],
  "nodes": [
    {
      "mesh": 0
    },
    {
      "mesh": 1
    },
    {
      "mesh": 2
    }
  ],
  "samplers": [
    {
      "magFilter": 9729,
      "minFilter": 9729,
      "wrapS": 10497,
      "wrapT": 10497
    },
    {
      "magFilter": 9729,
      "minFilter": 9729,
      "wrapS": 10497,
      "wrapT": 10497
    },
    {
      "magFilter": 9729,
      "minFilter": 9729,
      "wrapS": 10497,
      "wrapT": 10497
    }
  ],
  "scenes": [
    {
      "nodes": [
        0,
        1,
        2
      ]
    }
  ],
  "textures": [
    {
      "sampler": 0,
      "source": 0
    },
    {
      "sampler": 1,
      "source": 1
    },
    {
      "sampler": 2,
      "source": 2
    }
  ]
}
